# xmcd
#
# Track frame offsets:
#	150
#	15314
#	31575
#	54985
#	79950
#	95950
#	118302
#	141880
#	163715
#	187818
#	221333
#	238070
#	268654
#	285802
#	307993
#	334010
#
# Disc length: 4591 seconds
#
# Revision: 0
# Processed by: cddbd v1.5.2PL0 Copyright (c) Steve Scherf et al.
# Submitted via: audiograbber 1.83.01
#
DISCID=d411ed10
DTITLE=Various Artist - Бездна Кавказ
DYEAR=2008
DGENRE=Кавказ
TTITLE0=Карен - Джана (Диана)
TTITLE1=Манвел - Маржанджа
TTITLE2=Эрик - Анаша
TTITLE3=Казино - Гуляем все
TTITLE4=Дато - Верила
TTITLE5=Рустам - Подожди
TTITLE6=Зорик - Калина
TTITLE7=Манвел - Доля
TTITLE8=Армен - Старый парк
TTITLE9=Степа - Плановая
TTITLE10=Аида Саргисян - Вочинч часес
TTITLE11=Загид Магомаев - Дождь
TTITLE12=Заур Магомадов - Необыкновенные глаза
TTITLE13=Армине Симонян - Наср пар
TTITLE14=Лева - В городе дурман
TTITLE15=Федо - Полюби меня
EXTD=
EXTT0=
EXTT1=
EXTT2=
EXTT3=
EXTT4=
EXTT5=
EXTT6=
EXTT7=
EXTT8=
EXTT9=
EXTT10=
EXTT11=
EXTT12=
EXTT13=
EXTT14=
EXTT15=
PLAYORDER=
